<svg id="visual" viewBox="0 0 2000 1000" width="2000" height="1000" xmlns="http://www.w3.org/2000/svg" xmlns:xlink="http://www.w3.org/1999/xlink" version="1.1"><rect x="0" y="0" width="2000" height="1000" fill="#170412"></rect><path d="M0 554L222 603L444 525L667 554L889 517L1111 515L1333 566L1556 628L1778 559L2000 640L2000 1001L1778 1001L1556 1001L1333 1001L1111 1001L889 1001L667 1001L444 1001L222 1001L0 1001Z" fill="#72235c"></path><path d="M0 631L222 704L444 669L667 705L889 575L1111 633L1333 643L1556 687L1778 616L2000 650L2000 1001L1778 1001L1556 1001L1333 1001L1111 1001L889 1001L667 1001L444 1001L222 1001L0 1001Z" fill="#621f4f"></path><path d="M0 748L222 758L444 732L667 629L889 726L1111 712L1333 766L1556 755L1778 753L2000 676L2000 1001L1778 1001L1556 1001L1333 1001L1111 1001L889 1001L667 1001L444 1001L222 1001L0 1001Z" fill="#521a42"></path><path d="M0 716L222 778L444 697L667 773L889 741L1111 809L1333 720L1556 800L1778 777L2000 745L2000 1001L1778 1001L1556 1001L1333 1001L1111 1001L889 1001L667 1001L444 1001L222 1001L0 1001Z" fill="#421635"></path><path d="M0 848L222 808L444 832L667 769L889 838L1111 807L1333 822L1556 847L1778 801L2000 847L2000 1001L1778 1001L1556 1001L1333 1001L1111 1001L889 1001L667 1001L444 1001L222 1001L0 1001Z" fill="#331129"></path><path d="M0 848L222 839L444 851L667 902L889 898L1111 853L1333 877L1556 840L1778 849L2000 887L2000 1001L1778 1001L1556 1001L1333 1001L1111 1001L889 1001L667 1001L444 1001L222 1001L0 1001Z" fill="#240c1d"></path><path d="M0 946L222 958L444 948L667 956L889 954L1111 933L1333 949L1556 914L1778 958L2000 946L2000 1001L1778 1001L1556 1001L1333 1001L1111 1001L889 1001L667 1001L444 1001L222 1001L0 1001Z" fill="#180111"></path></svg>