<svg id="visual" viewBox="0 0 2000 1000" width="2000" height="1000" xmlns="http://www.w3.org/2000/svg" xmlns:xlink="http://www.w3.org/1999/xlink" version="1.1"><rect x="0" y="0" width="2000" height="1000" fill="#190814"></rect><path d="M0 555L286 572L571 492L857 494L1143 573L1429 537L1714 523L2000 540L2000 1001L1714 1001L1429 1001L1143 1001L857 1001L571 1001L286 1001L0 1001Z" fill="#7e2565"></path><path d="M0 648L286 660L571 633L857 642L1143 648L1429 714L1714 700L2000 617L2000 1001L1714 1001L1429 1001L1143 1001L857 1001L571 1001L286 1001L0 1001Z" fill="#622050"></path><path d="M0 752L286 693L571 690L857 685L1143 777L1429 753L1714 791L2000 787L2000 1001L1714 1001L1429 1001L1143 1001L857 1001L571 1001L286 1001L0 1001Z" fill="#481b3b"></path><path d="M0 843L286 820L571 832L857 847L1143 854L1429 824L1714 788L2000 792L2000 1001L1714 1001L1429 1001L1143 1001L857 1001L571 1001L286 1001L0 1001Z" fill="#2f1528"></path><path d="M0 908L286 946L571 932L857 900L1143 914L1429 903L1714 871L2000 872L2000 1001L1714 1001L1429 1001L1143 1001L857 1001L571 1001L286 1001L0 1001Z" fill="#190b15"></path></svg>